<svg xmlns="http://www.w3.org/2000/svg" viewBox="0 0 64 64" width="128px" height="128px"><path fill="#ffeb9b" d="M32 10A25 25 0 1 0 32 60A25 25 0 1 0 32 10Z"/><path fill="#9fddff" d="M32 14A21 21 0 1 0 32 56A21 21 0 1 0 32 14Z"/><path fill="#85cbf8" d="M32 20A15 15 0 1 0 32 50A15 15 0 1 0 32 20Z"/><path fill="#9fddff" d="M46.608,22.302c-4.812,1.414-8.231,3.981-9.789,5.332c-1.072,3.254-3.64,6.838-7.915,9.778v8.51 c0,0,3.399-6.211,11.448-8.105c5.247-1.235,9.78-1.586,11.647-1.685C51.983,30.801,49.939,25.955,46.608,22.302z"/><path fill="#f6d397" d="M30 10H32V15H30zM17 55L15 53 15 46 17 48zM17 22L15 24 15 17 17 15zM51 50L46 50 48 48 53 48z"/><path fill="none" stroke="#8d6c9f" stroke-linecap="round" stroke-linejoin="round" stroke-miterlimit="10" stroke-width="2" d="M32 15A20 20 0 1 0 32 55 20 20 0 1 0 32 15zM38 22.347c3.858 1.833 6.744 5.378 7.678 9.653M45.965 36c-.073 1.035-.259 2.039-.545 3"/><path fill="none" stroke="#8d6c9f" stroke-linecap="round" stroke-linejoin="round" stroke-miterlimit="10" stroke-width="2" d="M22.186,58C13.257,54.186,7,45.324,7,35c0-13.807,11.193-25,25-25s25,11.193,25,25c0,10.324-6.257,19.186-15.186,23"/><path fill="#ffeb9b" d="M14 5L29 5 29 51 57 51 50 59 14 59 18 54 18 10z"/><path fill="#f6d397" d="M29 51L29 6 24 6 24 51 27 54 54 54 57 51z"/><path fill="#faefde" d="M27 54L24 51 57 51 54 54z"/><path fill="none" stroke="#8d6c9f" stroke-linecap="round" stroke-linejoin="round" stroke-miterlimit="10" stroke-width="2" d="M14 5L29 5 29 51 57 51 50 59 14 59 18 54 18 10z"/><path fill="#faefde" d="M16 6L19 10 24 10 28 6z"/><path fill="#8d6c9f" d="M26 36c0-.552-.448-1-1-1h-2c-.552 0-1 .448-1 1s.448 1 1 1h2C25.552 37 26 36.552 26 36zM26 31c0-.552-.448-1-1-1h-2c-.552 0-1 .448-1 1s.448 1 1 1h2C25.552 32 26 31.552 26 31zM26 26c0-.552-.448-1-1-1h-2c-.552 0-1 .448-1 1s.448 1 1 1h2C25.552 27 26 26.552 26 26zM26 51c0-.552-.448-1-1-1h-2c-.552 0-1 .448-1 1s.448 1 1 1h2C25.552 52 26 51.552 26 51zM26 46c0-.552-.448-1-1-1h-2c-.552 0-1 .448-1 1s.448 1 1 1h2C25.552 47 26 46.552 26 46zM26 41c0-.552-.448-1-1-1h-2c-.552 0-1 .448-1 1s.448 1 1 1h2C25.552 42 26 41.552 26 41zM26 21c0-.552-.448-1-1-1h-2c-.552 0-1 .448-1 1s.448 1 1 1h2C25.552 22 26 21.552 26 21zM26 16c0-.552-.448-1-1-1h-2c-.552 0-1 .448-1 1s.448 1 1 1h2C25.552 17 26 16.552 26 16zM26 11c0-.552-.448-1-1-1h-2c-.552 0-1 .448-1 1s.448 1 1 1h2C25.552 12 26 11.552 26 11z"/></svg>