<svg xmlns="http://www.w3.org/2000/svg" viewBox="0 0 64 64" width="64px" height="64px"><path fill="#85cbf8" d="M62.34,43.27c-1.09-10.09-3.48-20-6.82-27.5a3.89,3.89,0,0,0-1.7-1.84A44.47,44.47,0,0,0,41.88,9.56,2,2,0,0,0,39.49,11L39,13l.08.72a35.17,35.17,0,0,0-14.16,0L25,13l-.49-2a2,2,0,0,0-2.39-1.47,44.47,44.47,0,0,0-11.94,4.37,3.89,3.89,0,0,0-1.7,1.84c-3.34,7.54-5.73,17.41-6.82,27.5a4,4,0,0,0,1.41,3.47A42.91,42.91,0,0,0,15.9,54.15a2,2,0,0,0,2.51-1L21,48l0-.3A46.94,46.94,0,0,0,43,47.7l0,.3,2.59,5.18a2,2,0,0,0,2.51,1,42.91,42.91,0,0,0,12.83-7.41A4,4,0,0,0,62.34,43.27ZM22.2,40.51c-2.8,0-5.07-2.94-5.07-6.55s2.27-6.55,5.07-6.55,5.07,2.93,5.07,6.55S25,40.51,22.2,40.51Zm20,0c-2.8,0-5.07-2.94-5.07-6.55s2.27-6.55,5.07-6.55,5.07,2.93,5.07,6.55S45,40.51,42.2,40.51Z"/><path fill="#9fddff" d="M48,19.74l-.11.26a2.54,2.54,0,0,1-3.77,1.1A22.69,22.69,0,0,0,32,18a23,23,0,0,0-11.88,3,2.5,2.5,0,0,1-3.45-.84L16.6,20a2.52,2.52,0,0,1,1.12-3.61A36.35,36.35,0,0,1,32,13c5,0,11.21,2.13,14.55,3.43A2.51,2.51,0,0,1,48,19.74Z"/><path fill="#9fddff" d="M60.93,46.74A42.91,42.91,0,0,1,48.1,54.15a2,2,0,0,1-2.51-1l0,0a42,42,0,0,0,10.36-6.4,4,4,0,0,0,1.41-3.47c-1.09-10.09-3.48-20-6.82-27.5a3.89,3.89,0,0,0-1.7-1.84,44.21,44.21,0,0,0-9-3.63,2,2,0,0,1,2-.74,44.47,44.47,0,0,1,11.94,4.37,3.89,3.89,0,0,1,1.7,1.84c3.34,7.54,5.73,17.41,6.82,27.5A4,4,0,0,1,60.93,46.74Z"/><path fill="#7bbeeb" d="M3.28,46.74a42.91,42.91,0,0,0,12.83,7.41,2,2,0,0,0,2.51-1l0,0a42,42,0,0,1-10.36-6.4,4,4,0,0,1-1.41-3.47c1.09-10.09,3.48-20,6.82-27.5a3.89,3.89,0,0,1,1.7-1.84,44.21,44.21,0,0,1,9-3.63,2,2,0,0,0-2-.74,44.47,44.47,0,0,0-11.94,4.37,3.89,3.89,0,0,0-1.7,1.84C5.35,23.31,3,33.18,1.87,43.27A4,4,0,0,0,3.28,46.74Z"/><path fill="#8d6c9f" d="M22 27c-3.31 0-6 3.14-6 7s2.69 7 6 7 6-3.14 6-7S25.31 27 22 27zm0 12c-2.21 0-4-2.24-4-5s1.79-5 4-5 4 2.24 4 5S24.21 39 22 39zM42 27c-3.31 0-6 3.14-6 7s2.69 7 6 7 6-3.14 6-7S45.31 27 42 27zm0 12c-2.21 0-4-2.24-4-5s1.79-5 4-5 4 2.24 4 5S44.21 39 42 39z"/><path fill="#8d6c9f" d="M63.33,43.16c-1.12-10.41-3.57-20.28-6.89-27.8A4.89,4.89,0,0,0,54.3,13,45.81,45.81,0,0,0,42.08,8.58a3,3,0,0,0-3.56,2.21l-.43,1.73a36.25,36.25,0,0,0-12.18,0l-.43-1.73a3,3,0,0,0-3.56-2.21A45.81,45.81,0,0,0,9.7,13a4.89,4.89,0,0,0-2.14,2.32C4.24,22.88,1.79,32.75.67,43.16a5,5,0,0,0,1.76,4.34,43.79,43.79,0,0,0,13.13,7.58,3,3,0,0,0,1.06.19,3,3,0,0,0,2.69-1.66l2.37-4.74a48.3,48.3,0,0,0,20.65,0l2.37,4.74a3,3,0,0,0,2.69,1.66,3.06,3.06,0,0,0,1.06-.19,43.8,43.8,0,0,0,13.13-7.58A5,5,0,0,0,63.33,43.16Zm-3,2.82a41.8,41.8,0,0,1-12.53,7.23,1,1,0,0,1-1.27-.48L44.32,48.4a46.3,46.3,0,0,0,7.09-2.52,1,1,0,0,0-.82-1.82A44.92,44.92,0,0,1,32,48a44.92,44.92,0,0,1-18.59-3.94,1,1,0,0,0-.82,1.82,46.3,46.3,0,0,0,7.09,2.52l-2.16,4.33a1,1,0,0,1-1.27.48A41.79,41.79,0,0,1,3.72,46a3,3,0,0,1-1.06-2.6c1.1-10.21,3.49-19.87,6.74-27.2a2.88,2.88,0,0,1,1.26-1.37,43.81,43.81,0,0,1,11.68-4.27,1,1,0,0,1,1.2.73l.41,1.64a26.79,26.79,0,0,0-8.51,3.38,1,1,0,0,0,1.13,1.65c.06,0,5.9-3.93,15.44-3.93s15.38,3.89,15.44,3.93a1,1,0,0,0,1.13-1.65,26.78,26.78,0,0,0-8.51-3.38l.41-1.64a1,1,0,0,1,1.2-.73,43.81,43.81,0,0,1,11.68,4.27,2.88,2.88,0,0,1,1.26,1.37c3.24,7.33,5.64,17,6.74,27.2A3,3,0,0,1,60.28,46Z"/><path fill="#8d6c9f" d="M34.67 52a37.93 37.93 0 0 1-11.43-.94A1 1 0 1 0 22.77 53 39.56 39.56 0 0 0 32 54.12c.94 0 1.88 0 2.81-.1a1 1 0 1 0-.14-2zM40.77 51.09c-.84.2-1.69.38-2.53.52a1 1 0 0 0 .16 2h.17c.89-.15 1.78-.33 2.67-.54a1 1 0 0 0-.47-1.95zM32 16.42a1 1 0 0 0-1 1v1.76a1 1 0 0 0 2 0V17.42A1 1 0 0 0 32 16.42zM36.75 20.61l.24 0a1 1 0 0 0 1-.77l.42-1.72a1 1 0 0 0-1.94-.47L36 19.4A1 1 0 0 0 36.75 20.61zM41.31 21.89a1 1 0 0 0 1.34-.44l.81-1.61a1 1 0 1 0-1.78-.9l-.81 1.61A1 1 0 0 0 41.31 21.89zM26 19.87a1 1 0 0 0 1 .77l.24 0A1 1 0 0 0 28 19.4l-.42-1.72a1 1 0 0 0-1.94.47zM21.35 21.45a1 1 0 1 0 1.78-.9l-.81-1.61a1 1 0 1 0-1.78.9z"/></svg>